<svg id="Layer_1" data-name="Layer 1" xmlns="http://www.w3.org/2000/svg" viewBox="0 0 284.84 113.56"><defs><style>.cls-1{fill:#fbb040;}.cls-2{fill:#027441;}.cls-3,.cls-4{fill:#a8170d;}.cls-4{font-size:75.5px;font-family:Britanica-ExtraBold;font-weight:800;}.cls-5{font-size:22.25px;fill:#000;}.cls-6{letter-spacing:-0.04em;}.cls-7{letter-spacing:-0.07em;}.cls-8{letter-spacing:-0.03em;}</style></defs><path class="cls-1" d="M358.62,448.22a4,4,0,0,1-2.8-1.16l-33.7-33.7a4,4,0,0,1,0-5.6L363,366.93a4,4,0,0,1,6.66,1.93,68.27,68.27,0,0,1,1.53,15.3v31.69c0,14.6-3.09,24.52-9.71,31.2a3.93,3.93,0,0,1-2.8,1.17Zm-28.09-37.66,27.79,27.79c3.33-5.1,4.9-12.39,4.9-22.5V384.16c0-2.15-.08-4.16-.23-6.06Z" transform="translate(-257.58 -343.22)"/><path class="cls-2" d="M284.1,455.35a3.8,3.8,0,0,1-.89-.1c-9-2.07-15.5-6.34-19.71-13.05-4-6.35-5.92-15-5.92-26.35v-31.7c0-14.63,3.1-24.54,9.74-31.19s16.56-9.74,31.19-9.74h31.7c11.38,0,20,1.94,26.35,5.92,6.71,4.21,11,10.66,13.05,19.71a3.94,3.94,0,0,1-1.06,3.69L286.9,454.19A4,4,0,0,1,284.1,455.35Zm14.41-104.21c-12.39,0-20.52,2.36-25.58,7.43s-7.43,13.19-7.43,25.58v31.7c0,18.33,5.08,27.53,17.4,31.14l78.45-78.45c-3.61-12.32-12.81-17.4-31.14-17.4Z" transform="translate(-257.58 -343.22)"/><path class="cls-3" d="M330.21,456.78H298.52a68.27,68.27,0,0,1-15.3-1.53,4,4,0,0,1-1.93-6.66l40.83-40.83a4,4,0,0,1,5.6,0l33.7,33.7a4,4,0,0,1,0,5.61C354.73,453.69,344.81,456.78,330.21,456.78Zm-37.75-8.15c1.9.15,3.91.23,6.06.23h31.69c10.11,0,17.4-1.57,22.5-4.9l-27.79-27.79Z" transform="translate(-257.58 -343.22)"/><path class="cls-1" d="M299.17,406.89a13.54,13.54,0,0,1-9.29-3.69A36.82,36.82,0,0,1,282,392.92a22.06,22.06,0,0,1-2-15.05h0a18.28,18.28,0,0,1,7.34-11,20.77,20.77,0,0,1,23.46,0,18.33,18.33,0,0,1,7.34,11v0a22.2,22.2,0,0,1-2,15,36.75,36.75,0,0,1-7.8,10.27h0A13.36,13.36,0,0,1,299.17,406.89Zm0-35.77c-4.32,0-9.89,2.24-11.35,8.54h0c-1.68,7.21,3.16,13.65,7.52,17.78a5.54,5.54,0,0,0,7.64,0h0c4.34-4.11,9.17-10.54,7.53-17.8C309,373.35,303.47,371.12,299.15,371.12Z" transform="translate(-257.58 -343.22)"/><path class="cls-1" d="M299.06,387.85H299a5.28,5.28,0,1,1,0-10.56h.05a5.28,5.28,0,1,1,0,10.56Z" transform="translate(-257.58 -343.22)"/><text class="cls-4" transform="translate(140.77 74.88) scale(0.91 1)">MAK<tspan class="cls-5"><tspan x="0" y="21.66">SMA</tspan><tspan class="cls-6" x="46.52" y="21.66">R</tspan><tspan class="cls-7" x="58.82" y="21.66">T</tspan><tspan class="cls-8" x="70.56" y="21.66">C</tspan><tspan x="84.82" y="21.66">AMPUS</tspan></tspan></text></svg>