{
	"asset":{
		"generator":"Khronos glTF Blender I/O v3.5.30",
		"version":"2.0"
	},
	"scene":0,
	"scenes":[
		{
			"name":"Scene",
			"nodes":[
				0,
				1,
				2,
				3,
				4,
				5,
				6,
				7,
				8,
				9,
				10
			]
		}
	],
	"nodes":[
		{
			"mesh":0,
			"name":"G-__555672",
			"translation":[
				1705.1719970703125,
				27.475475311279297,
				-2055.98046875
			]
		},
		{
			"mesh":1,
			"name":"G-__555681",
			"translation":[
				1561.723388671875,
				49.516502380371094,
				-2309.53173828125
			]
		},
		{
			"mesh":2,
			"name":"G-__555690",
			"translation":[
				1805.8548583984375,
				25.15137481689453,
				-1907.274169921875
			]
		},
		{
			"mesh":3,
			"name":"G-__555699",
			"translation":[
				1878.2291259765625,
				45.26580047607422,
				-1980.3668212890625
			]
		},
		{
			"mesh":4,
			"name":"G-__555708",
			"translation":[
				1714.3045654296875,
				24.540563583374023,
				-2024.7286376953125
			]
		},
		{
			"mesh":5,
			"name":"G-__555717",
			"translation":[
				2203.21875,
				22.144901275634766,
				-1718.4371337890625
			]
		},
		{
			"mesh":6,
			"name":"G-__555726",
			"translation":[
				2243.609130859375,
				33.74668884277344,
				-1624.1282958984375
			]
		},
		{
			"mesh":7,
			"name":"G-__555735",
			"translation":[
				1763.368408203125,
				33.05771255493164,
				-2106.963623046875
			]
		},
		{
			"mesh":8,
			"name":"G-__555744",
			"translation":[
				1760.2440185546875,
				37.192649841308594,
				-1970.197998046875
			]
		},
		{
			"mesh":9,
			"name":"G-__555753",
			"translation":[
				1560.435791015625,
				54.935726165771484,
				-2173.111572265625
			]
		},
		{
			"mesh":10,
			"name":"G-__555762",
			"translation":[
				1701.6949462890625,
				21.06393814086914,
				-2217.40185546875
			]
		}
	],
	"materials":[
		{
			"doubleSided":true,
			"name":"Heather_Stripe2",
			"pbrMetallicRoughness":{
				"baseColorFactor":[
					0.3250369727611542,
					0.08021926134824753,
					0.1701383739709854,
					1
				],
				"metallicFactor":0,
				"roughnessFactor":0.4000000059604645
			}
		}
	],
	"meshes":[
		{
			"name":"G-__555672",
			"primitives":[
				{
					"attributes":{
						"POSITION":0,
						"NORMAL":1
					},
					"indices":2,
					"material":0
				}
			]
		},
		{
			"name":"G-__555681",
			"primitives":[
				{
					"attributes":{
						"POSITION":3,
						"NORMAL":4
					},
					"indices":2,
					"material":0
				}
			]
		},
		{
			"name":"G-__555690",
			"primitives":[
				{
					"attributes":{
						"POSITION":5,
						"NORMAL":6
					},
					"indices":2,
					"material":0
				}
			]
		},
		{
			"name":"G-__555699",
			"primitives":[
				{
					"attributes":{
						"POSITION":7,
						"NORMAL":8
					},
					"indices":2,
					"material":0
				}
			]
		},
		{
			"name":"G-__555708",
			"primitives":[
				{
					"attributes":{
						"POSITION":9,
						"NORMAL":10
					},
					"indices":2,
					"material":0
				}
			]
		},
		{
			"name":"G-__555717",
			"primitives":[
				{
					"attributes":{
						"POSITION":11,
						"NORMAL":12
					},
					"indices":2,
					"material":0
				}
			]
		},
		{
			"name":"G-__555726",
			"primitives":[
				{
					"attributes":{
						"POSITION":13,
						"NORMAL":14
					},
					"indices":2,
					"material":0
				}
			]
		},
		{
			"name":"G-__555735",
			"primitives":[
				{
					"attributes":{
						"POSITION":15,
						"NORMAL":16
					},
					"indices":2,
					"material":0
				}
			]
		},
		{
			"name":"G-__555744",
			"primitives":[
				{
					"attributes":{
						"POSITION":17,
						"NORMAL":18
					},
					"indices":2,
					"material":0
				}
			]
		},
		{
			"name":"G-__555753",
			"primitives":[
				{
					"attributes":{
						"POSITION":19,
						"NORMAL":20
					},
					"indices":2,
					"material":0
				}
			]
		},
		{
			"name":"G-__555762",
			"primitives":[
				{
					"attributes":{
						"POSITION":21,
						"NORMAL":22
					},
					"indices":2,
					"material":0
				}
			]
		}
	],
	"accessors":[
		{
			"bufferView":0,
			"componentType":5126,
			"count":96,
			"max":[
				14.183886528015137,
				18.058391571044922,
				0
			],
			"min":[
				0,
				0,
				-14.187807083129883
			],
			"type":"VEC3"
		},
		{
			"bufferView":1,
			"componentType":5126,
			"count":96,
			"type":"VEC3"
		},
		{
			"bufferView":2,
			"componentType":5123,
			"count":276,
			"type":"SCALAR"
		},
		{
			"bufferView":3,
			"componentType":5126,
			"count":96,
			"max":[
				14.183886528015137,
				18.058391571044922,
				0
			],
			"min":[
				0,
				0,
				-14.187807083129883
			],
			"type":"VEC3"
		},
		{
			"bufferView":4,
			"componentType":5126,
			"count":96,
			"type":"VEC3"
		},
		{
			"bufferView":5,
			"componentType":5126,
			"count":96,
			"max":[
				14.183886528015137,
				18.058391571044922,
				0
			],
			"min":[
				0,
				0,
				-14.187807083129883
			],
			"type":"VEC3"
		},
		{
			"bufferView":6,
			"componentType":5126,
			"count":96,
			"type":"VEC3"
		},
		{
			"bufferView":7,
			"componentType":5126,
			"count":96,
			"max":[
				14.183886528015137,
				18.058391571044922,
				0
			],
			"min":[
				0,
				0,
				-14.187807083129883
			],
			"type":"VEC3"
		},
		{
			"bufferView":8,
			"componentType":5126,
			"count":96,
			"type":"VEC3"
		},
		{
			"bufferView":9,
			"componentType":5126,
			"count":96,
			"max":[
				14.183886528015137,
				18.058391571044922,
				0
			],
			"min":[
				0,
				0,
				-14.187807083129883
			],
			"type":"VEC3"
		},
		{
			"bufferView":10,
			"componentType":5126,
			"count":96,
			"type":"VEC3"
		},
		{
			"bufferView":11,
			"componentType":5126,
			"count":96,
			"max":[
				14.183886528015137,
				18.058391571044922,
				0
			],
			"min":[
				0,
				0,
				-14.187807083129883
			],
			"type":"VEC3"
		},
		{
			"bufferView":12,
			"componentType":5126,
			"count":96,
			"type":"VEC3"
		},
		{
			"bufferView":13,
			"componentType":5126,
			"count":96,
			"max":[
				14.183886528015137,
				18.058391571044922,
				0
			],
			"min":[
				0,
				0,
				-14.187807083129883
			],
			"type":"VEC3"
		},
		{
			"bufferView":14,
			"componentType":5126,
			"count":96,
			"type":"VEC3"
		},
		{
			"bufferView":15,
			"componentType":5126,
			"count":96,
			"max":[
				14.183886528015137,
				18.058391571044922,
				0
			],
			"min":[
				0,
				0,
				-14.187807083129883
			],
			"type":"VEC3"
		},
		{
			"bufferView":16,
			"componentType":5126,
			"count":96,
			"type":"VEC3"
		},
		{
			"bufferView":17,
			"componentType":5126,
			"count":96,
			"max":[
				14.183886528015137,
				18.058391571044922,
				0
			],
			"min":[
				0,
				0,
				-14.187807083129883
			],
			"type":"VEC3"
		},
		{
			"bufferView":18,
			"componentType":5126,
			"count":96,
			"type":"VEC3"
		},
		{
			"bufferView":19,
			"componentType":5126,
			"count":96,
			"max":[
				14.183886528015137,
				18.058391571044922,
				0
			],
			"min":[
				0,
				0,
				-14.187807083129883
			],
			"type":"VEC3"
		},
		{
			"bufferView":20,
			"componentType":5126,
			"count":96,
			"type":"VEC3"
		},
		{
			"bufferView":21,
			"componentType":5126,
			"count":96,
			"max":[
				14.183886528015137,
				18.058391571044922,
				0
			],
			"min":[
				0,
				0,
				-14.187807083129883
			],
			"type":"VEC3"
		},
		{
			"bufferView":22,
			"componentType":5126,
			"count":96,
			"type":"VEC3"
		}
	],
	"bufferViews":[
		{
			"buffer":0,
			"byteLength":1152,
			"byteOffset":0,
			"target":34962
		},
		{
			"buffer":0,
			"byteLength":1152,
			"byteOffset":1152,
			"target":34962
		},
		{
			"buffer":0,
			"byteLength":552,
			"byteOffset":2304,
			"target":34963
		},
		{
			"buffer":0,
			"byteLength":1152,
			"byteOffset":2856,
			"target":34962
		},
		{
			"buffer":0,
			"byteLength":1152,
			"byteOffset":4008,
			"target":34962
		},
		{
			"buffer":0,
			"byteLength":1152,
			"byteOffset":5160,
			"target":34962
		},
		{
			"buffer":0,
			"byteLength":1152,
			"byteOffset":6312,
			"target":34962
		},
		{
			"buffer":0,
			"byteLength":1152,
			"byteOffset":7464,
			"target":34962
		},
		{
			"buffer":0,
			"byteLength":1152,
			"byteOffset":8616,
			"target":34962
		},
		{
			"buffer":0,
			"byteLength":1152,
			"byteOffset":9768,
			"target":34962
		},
		{
			"buffer":0,
			"byteLength":1152,
			"byteOffset":10920,
			"target":34962
		},
		{
			"buffer":0,
			"byteLength":1152,
			"byteOffset":12072,
			"target":34962
		},
		{
			"buffer":0,
			"byteLength":1152,
			"byteOffset":13224,
			"target":34962
		},
		{
			"buffer":0,
			"byteLength":1152,
			"byteOffset":14376,
			"target":34962
		},
		{
			"buffer":0,
			"byteLength":1152,
			"byteOffset":15528,
			"target":34962
		},
		{
			"buffer":0,
			"byteLength":1152,
			"byteOffset":16680,
			"target":34962
		},
		{
			"buffer":0,
			"byteLength":1152,
			"byteOffset":17832,
			"target":34962
		},
		{
			"buffer":0,
			"byteLength":1152,
			"byteOffset":18984,
			"target":34962
		},
		{
			"buffer":0,
			"byteLength":1152,
			"byteOffset":20136,
			"target":34962
		},
		{
			"buffer":0,
			"byteLength":1152,
			"byteOffset":21288,
			"target":34962
		},
		{
			"buffer":0,
			"byteLength":1152,
			"byteOffset":22440,
			"target":34962
		},
		{
			"buffer":0,
			"byteLength":1152,
			"byteOffset":23592,
			"target":34962
		},
		{
			"buffer":0,
			"byteLength":1152,
			"byteOffset":24744,
			"target":34962
		}
	],
	"buffers":[
		{
			"byteLength":25896,
			"uri":"college-labels.bin"
		}
	]
}
