{
	"asset":{
		"generator":"Khronos glTF Blender I/O v3.5.30",
		"version":"2.0"
	},
	"scene":0,
	"scenes":[
		{
			"name":"Scene",
			"nodes":[
				0,
				1,
				2,
				3,
				4,
				5,
				6,
				7,
				8
			]
		}
	],
	"nodes":[
		{
			"mesh":0,
			"name":"G-__555564",
			"translation":[
				1931.1651611328125,
				33.66812515258789,
				-2406.125244140625
			]
		},
		{
			"mesh":1,
			"name":"G-__555573",
			"translation":[
				2051.105712890625,
				33.2172737121582,
				-2315.54150390625
			]
		},
		{
			"mesh":2,
			"name":"G-__555582",
			"translation":[
				2119.847900390625,
				30.424861907958984,
				-2103.808349609375
			]
		},
		{
			"mesh":3,
			"name":"G-__555591",
			"translation":[
				2189.43017578125,
				34.084049224853516,
				-2102.974365234375
			]
		},
		{
			"mesh":4,
			"name":"G-__555600",
			"translation":[
				2217.398681640625,
				42.15146255493164,
				-1883.5462646484375
			]
		},
		{
			"mesh":5,
			"name":"G-__555609",
			"translation":[
				2423.119873046875,
				30.675687789916992,
				-1788.922119140625
			]
		},
		{
			"mesh":6,
			"name":"G-__555618",
			"translation":[
				2192.16162109375,
				20.821863174438477,
				-1445.89404296875
			]
		},
		{
			"mesh":7,
			"name":"G-__555627",
			"translation":[
				1803.90771484375,
				43.384212493896484,
				-1563.8006591796875
			]
		},
		{
			"mesh":8,
			"name":"G-__555636",
			"translation":[
				1734.74072265625,
				30.926511764526367,
				-1646.801025390625
			]
		}
	],
	"materials":[
		{
			"doubleSided":true,
			"name":"Heather_PantShadow",
			"pbrMetallicRoughness":{
				"baseColorFactor":[
					0.018912984058260918,
					0.07592611759901047,
					0.18698850274085999,
					1
				],
				"metallicFactor":0,
				"roughnessFactor":0.4000000059604645
			}
		}
	],
	"meshes":[
		{
			"name":"G-__555564",
			"primitives":[
				{
					"attributes":{
						"POSITION":0,
						"NORMAL":1
					},
					"indices":2,
					"material":0
				}
			]
		},
		{
			"name":"G-__555573",
			"primitives":[
				{
					"attributes":{
						"POSITION":3,
						"NORMAL":4
					},
					"indices":2,
					"material":0
				}
			]
		},
		{
			"name":"G-__555582",
			"primitives":[
				{
					"attributes":{
						"POSITION":5,
						"NORMAL":6
					},
					"indices":2,
					"material":0
				}
			]
		},
		{
			"name":"G-__555591",
			"primitives":[
				{
					"attributes":{
						"POSITION":7,
						"NORMAL":8
					},
					"indices":2,
					"material":0
				}
			]
		},
		{
			"name":"G-__555600",
			"primitives":[
				{
					"attributes":{
						"POSITION":9,
						"NORMAL":10
					},
					"indices":2,
					"material":0
				}
			]
		},
		{
			"name":"G-__555609",
			"primitives":[
				{
					"attributes":{
						"POSITION":11,
						"NORMAL":12
					},
					"indices":2,
					"material":0
				}
			]
		},
		{
			"name":"G-__555618",
			"primitives":[
				{
					"attributes":{
						"POSITION":13,
						"NORMAL":14
					},
					"indices":2,
					"material":0
				}
			]
		},
		{
			"name":"G-__555627",
			"primitives":[
				{
					"attributes":{
						"POSITION":15,
						"NORMAL":16
					},
					"indices":2,
					"material":0
				}
			]
		},
		{
			"name":"G-__555636",
			"primitives":[
				{
					"attributes":{
						"POSITION":17,
						"NORMAL":18
					},
					"indices":2,
					"material":0
				}
			]
		}
	],
	"accessors":[
		{
			"bufferView":0,
			"componentType":5126,
			"count":96,
			"max":[
				14.183886528015137,
				18.058391571044922,
				0
			],
			"min":[
				0,
				0,
				-14.187807083129883
			],
			"type":"VEC3"
		},
		{
			"bufferView":1,
			"componentType":5126,
			"count":96,
			"type":"VEC3"
		},
		{
			"bufferView":2,
			"componentType":5123,
			"count":276,
			"type":"SCALAR"
		},
		{
			"bufferView":3,
			"componentType":5126,
			"count":96,
			"max":[
				14.183886528015137,
				18.058391571044922,
				0
			],
			"min":[
				0,
				0,
				-14.187807083129883
			],
			"type":"VEC3"
		},
		{
			"bufferView":4,
			"componentType":5126,
			"count":96,
			"type":"VEC3"
		},
		{
			"bufferView":5,
			"componentType":5126,
			"count":96,
			"max":[
				14.183886528015137,
				18.058391571044922,
				0
			],
			"min":[
				0,
				0,
				-14.187807083129883
			],
			"type":"VEC3"
		},
		{
			"bufferView":6,
			"componentType":5126,
			"count":96,
			"type":"VEC3"
		},
		{
			"bufferView":7,
			"componentType":5126,
			"count":96,
			"max":[
				14.183886528015137,
				18.058391571044922,
				0
			],
			"min":[
				0,
				0,
				-14.187807083129883
			],
			"type":"VEC3"
		},
		{
			"bufferView":8,
			"componentType":5126,
			"count":96,
			"type":"VEC3"
		},
		{
			"bufferView":9,
			"componentType":5126,
			"count":96,
			"max":[
				14.183886528015137,
				18.058391571044922,
				0
			],
			"min":[
				0,
				0,
				-14.187807083129883
			],
			"type":"VEC3"
		},
		{
			"bufferView":10,
			"componentType":5126,
			"count":96,
			"type":"VEC3"
		},
		{
			"bufferView":11,
			"componentType":5126,
			"count":96,
			"max":[
				14.183886528015137,
				18.058391571044922,
				0
			],
			"min":[
				0,
				0,
				-14.187807083129883
			],
			"type":"VEC3"
		},
		{
			"bufferView":12,
			"componentType":5126,
			"count":96,
			"type":"VEC3"
		},
		{
			"bufferView":13,
			"componentType":5126,
			"count":96,
			"max":[
				14.183886528015137,
				18.058391571044922,
				0
			],
			"min":[
				0,
				0,
				-14.187807083129883
			],
			"type":"VEC3"
		},
		{
			"bufferView":14,
			"componentType":5126,
			"count":96,
			"type":"VEC3"
		},
		{
			"bufferView":15,
			"componentType":5126,
			"count":96,
			"max":[
				14.183886528015137,
				18.058391571044922,
				0
			],
			"min":[
				0,
				0,
				-14.187807083129883
			],
			"type":"VEC3"
		},
		{
			"bufferView":16,
			"componentType":5126,
			"count":96,
			"type":"VEC3"
		},
		{
			"bufferView":17,
			"componentType":5126,
			"count":96,
			"max":[
				14.183886528015137,
				18.058391571044922,
				0
			],
			"min":[
				0,
				0,
				-14.187807083129883
			],
			"type":"VEC3"
		},
		{
			"bufferView":18,
			"componentType":5126,
			"count":96,
			"type":"VEC3"
		}
	],
	"bufferViews":[
		{
			"buffer":0,
			"byteLength":1152,
			"byteOffset":0,
			"target":34962
		},
		{
			"buffer":0,
			"byteLength":1152,
			"byteOffset":1152,
			"target":34962
		},
		{
			"buffer":0,
			"byteLength":552,
			"byteOffset":2304,
			"target":34963
		},
		{
			"buffer":0,
			"byteLength":1152,
			"byteOffset":2856,
			"target":34962
		},
		{
			"buffer":0,
			"byteLength":1152,
			"byteOffset":4008,
			"target":34962
		},
		{
			"buffer":0,
			"byteLength":1152,
			"byteOffset":5160,
			"target":34962
		},
		{
			"buffer":0,
			"byteLength":1152,
			"byteOffset":6312,
			"target":34962
		},
		{
			"buffer":0,
			"byteLength":1152,
			"byteOffset":7464,
			"target":34962
		},
		{
			"buffer":0,
			"byteLength":1152,
			"byteOffset":8616,
			"target":34962
		},
		{
			"buffer":0,
			"byteLength":1152,
			"byteOffset":9768,
			"target":34962
		},
		{
			"buffer":0,
			"byteLength":1152,
			"byteOffset":10920,
			"target":34962
		},
		{
			"buffer":0,
			"byteLength":1152,
			"byteOffset":12072,
			"target":34962
		},
		{
			"buffer":0,
			"byteLength":1152,
			"byteOffset":13224,
			"target":34962
		},
		{
			"buffer":0,
			"byteLength":1152,
			"byteOffset":14376,
			"target":34962
		},
		{
			"buffer":0,
			"byteLength":1152,
			"byteOffset":15528,
			"target":34962
		},
		{
			"buffer":0,
			"byteLength":1152,
			"byteOffset":16680,
			"target":34962
		},
		{
			"buffer":0,
			"byteLength":1152,
			"byteOffset":17832,
			"target":34962
		},
		{
			"buffer":0,
			"byteLength":1152,
			"byteOffset":18984,
			"target":34962
		},
		{
			"buffer":0,
			"byteLength":1152,
			"byteOffset":20136,
			"target":34962
		}
	],
	"buffers":[
		{
			"byteLength":21288,
			"uri":"halls-labels.bin"
		}
	]
}
