{
	"asset":{
		"generator":"Khronos glTF Blender I/O v3.5.30",
		"version":"2.0"
	},
	"scene":0,
	"scenes":[
		{
			"name":"Scene",
			"nodes":[
				0,
				1,
				2,
				3,
				4,
				5,
				6,
				7,
				8,
				9,
				10,
				11,
				12,
				13,
				14
			]
		}
	],
	"nodes":[
		{
			"mesh":0,
			"name":"Sketchup"
		},
		{
			"mesh":1,
			"name":"AM113_048_Acer_platanoides_Defintion",
			"rotation":[
				-0.00010415662836749107,
				-0.46933239698410034,
				-0.0014586040051653981,
				0.8830204606056213
			],
			"scale":[
				0.27831557393074036,
				0.27831557393074036,
				0.27831557393074036
			],
			"translation":[
				1950.0489501953125,
				0.06614409387111664,
				-1578.580810546875
			]
		},
		{
			"mesh":2,
			"name":"AM113_048_Acer_platanoides_Defintion1",
			"rotation":[
				-0.00010415661381557584,
				-0.4693323075771332,
				-0.0014586038887500763,
				0.8830204010009766
			],
			"scale":[
				0.22582285106182098,
				0.22582286596298218,
				0.22582286596298218
			],
			"translation":[
				1950.0489501953125,
				0.06614409387111664,
				-1578.580810546875
			]
		},
		{
			"mesh":1,
			"name":"AM113_048_Acer_platanoides_Defintion.001",
			"rotation":[
				-0.00010415662836749107,
				-0.46933239698410034,
				-0.0014586040051653981,
				0.8830204606056213
			],
			"scale":[
				0.27831557393074036,
				0.27831557393074036,
				0.27831557393074036
			],
			"translation":[
				1962.72021484375,
				0.06614409387111664,
				-1546.0908203125
			]
		},
		{
			"mesh":2,
			"name":"AM113_048_Acer_platanoides_Defintion1.001",
			"rotation":[
				-0.00010415661381557584,
				-0.4693323075771332,
				-0.0014586038887500763,
				0.8830204010009766
			],
			"scale":[
				0.22582285106182098,
				0.22582286596298218,
				0.22582286596298218
			],
			"translation":[
				1962.72021484375,
				0.06614409387111664,
				-1546.0908203125
			]
		},
		{
			"mesh":1,
			"name":"AM113_048_Acer_platanoides_Defintion.002",
			"rotation":[
				-0.00010415662836749107,
				-0.46933239698410034,
				-0.0014586040051653981,
				0.8830204606056213
			],
			"scale":[
				0.27831557393074036,
				0.27831557393074036,
				0.27831557393074036
			],
			"translation":[
				1985.4644775390625,
				0.06614409387111664,
				-1569.523193359375
			]
		},
		{
			"mesh":2,
			"name":"AM113_048_Acer_platanoides_Defintion1.002",
			"rotation":[
				-0.00010415661381557584,
				-0.4693323075771332,
				-0.0014586038887500763,
				0.8830204010009766
			],
			"scale":[
				0.22582285106182098,
				0.22582286596298218,
				0.22582286596298218
			],
			"translation":[
				1985.4644775390625,
				0.06614409387111664,
				-1569.523193359375
			]
		},
		{
			"mesh":1,
			"name":"AM113_048_Acer_platanoides_Defintion.003",
			"rotation":[
				-0.00010415662836749107,
				-0.46933239698410034,
				-0.0014586040051653981,
				0.8830204606056213
			],
			"scale":[
				0.27831557393074036,
				0.27831557393074036,
				0.27831557393074036
			],
			"translation":[
				2291.29248046875,
				0.06614409387111664,
				-1508.4520263671875
			]
		},
		{
			"mesh":2,
			"name":"AM113_048_Acer_platanoides_Defintion1.003",
			"rotation":[
				-0.00010415661381557584,
				-0.4693323075771332,
				-0.0014586038887500763,
				0.8830204010009766
			],
			"scale":[
				0.22582285106182098,
				0.22582286596298218,
				0.22582286596298218
			],
			"translation":[
				2291.29248046875,
				0.06614409387111664,
				-1508.4520263671875
			]
		},
		{
			"mesh":1,
			"name":"AM113_048_Acer_platanoides_Defintion.004",
			"rotation":[
				-0.00010415662836749107,
				-0.46933239698410034,
				-0.0014586040051653981,
				0.8830204606056213
			],
			"scale":[
				0.27831557393074036,
				0.27831557393074036,
				0.27831557393074036
			],
			"translation":[
				2324.42333984375,
				0.06614409387111664,
				-1510.15234375
			]
		},
		{
			"mesh":2,
			"name":"AM113_048_Acer_platanoides_Defintion1.004",
			"rotation":[
				-0.00010415661381557584,
				-0.4693323075771332,
				-0.0014586038887500763,
				0.8830204010009766
			],
			"scale":[
				0.22582285106182098,
				0.22582286596298218,
				0.22582286596298218
			],
			"translation":[
				2324.42333984375,
				0.06614409387111664,
				-1510.15234375
			]
		},
		{
			"mesh":1,
			"name":"AM113_048_Acer_platanoides_Defintion.005",
			"rotation":[
				-0.00010415662836749107,
				-0.46933239698410034,
				-0.0014586040051653981,
				0.8830204606056213
			],
			"scale":[
				0.27831557393074036,
				0.27831557393074036,
				0.27831557393074036
			],
			"translation":[
				2354.833251953125,
				0.06614409387111664,
				-1487.1226806640625
			]
		},
		{
			"mesh":2,
			"name":"AM113_048_Acer_platanoides_Defintion1.005",
			"rotation":[
				-0.00010415661381557584,
				-0.4693323075771332,
				-0.0014586038887500763,
				0.8830204010009766
			],
			"scale":[
				0.22582285106182098,
				0.22582286596298218,
				0.22582286596298218
			],
			"translation":[
				2354.833251953125,
				0.06614409387111664,
				-1487.1226806640625
			]
		},
		{
			"mesh":1,
			"name":"AM113_048_Acer_platanoides_Defintion.006",
			"rotation":[
				-0.00010415662836749107,
				-0.46933239698410034,
				-0.0014586040051653981,
				0.8830204606056213
			],
			"scale":[
				0.27831557393074036,
				0.27831557393074036,
				0.27831557393074036
			],
			"translation":[
				2354.968994140625,
				0.06614409387111664,
				-1440.3214111328125
			]
		},
		{
			"mesh":2,
			"name":"AM113_048_Acer_platanoides_Defintion1.006",
			"rotation":[
				-0.00010415661381557584,
				-0.4693323075771332,
				-0.0014586038887500763,
				0.8830204010009766
			],
			"scale":[
				0.22582285106182098,
				0.22582286596298218,
				0.22582286596298218
			],
			"translation":[
				2354.968994140625,
				0.06614409387111664,
				-1440.3214111328125
			]
		}
	],
	"materials":[
		{
			"doubleSided":true,
			"name":"Material",
			"pbrMetallicRoughness":{
				"baseColorFactor":[
					0.800000011920929,
					0.800000011920929,
					0.800000011920929,
					1
				],
				"metallicFactor":0,
				"roughnessFactor":0.5
			}
		},
		{
			"doubleSided":true,
			"name":"Material4",
			"pbrMetallicRoughness":{
				"baseColorFactor":[
					0.4423229396343231,
					0.25491586327552795,
					0.13902245461940765,
					1
				],
				"metallicFactor":0,
				"roughnessFactor":0.4000000059604645
			}
		},
		{
			"doubleSided":true,
			"name":"Material5",
			"pbrMetallicRoughness":{
				"baseColorFactor":[
					0.8912620544433594,
					0.3889102637767792,
					0.09868919849395752,
					1
				],
				"metallicFactor":0,
				"roughnessFactor":0.4000000059604645
			}
		},
		{
			"doubleSided":true,
			"name":"Material7",
			"pbrMetallicRoughness":{
				"baseColorFactor":[
					0.17343904078006744,
					0.09387587010860443,
					0.08021926134824753,
					1
				],
				"metallicFactor":0,
				"roughnessFactor":0.4000000059604645
			}
		},
		{
			"doubleSided":true,
			"name":"Material6",
			"pbrMetallicRoughness":{
				"baseColorFactor":[
					0.7082977890968323,
					0.45907989144325256,
					0.3440256714820862,
					1
				],
				"metallicFactor":0,
				"roughnessFactor":0.4000000059604645
			}
		},
		{
			"doubleSided":true,
			"name":"Material3",
			"pbrMetallicRoughness":{
				"baseColorFactor":[
					0.8199636936187744,
					0.8512516617774963,
					0.5924380421638489,
					1
				],
				"metallicFactor":0,
				"roughnessFactor":0.4000000059604645
			}
		},
		{
			"doubleSided":true,
			"name":"[Roofing Scalloped Ornate]",
			"pbrMetallicRoughness":{
				"baseColorTexture":{
					"index":0
				},
				"metallicFactor":0,
				"roughnessFactor":0.5
			}
		},
		{
			"doubleSided":true,
			"name":"[Grass Dark Green]",
			"pbrMetallicRoughness":{
				"baseColorFactor":[
					0.38377463817596436,
					0.5859729647636414,
					0.08919350802898407,
					1
				],
				"metallicFactor":0,
				"roughnessFactor":0.4000000059604645
			}
		},
		{
			"doubleSided":true,
			"name":"Heather_Hair2",
			"pbrMetallicRoughness":{
				"baseColorFactor":[
					0.38377463817596436,
					0.5859729647636414,
					0.08919350802898407,
					1
				],
				"metallicFactor":0,
				"roughnessFactor":0.4000000059604645
			}
		},
		{
			"doubleSided":true,
			"name":"<Black>",
			"pbrMetallicRoughness":{
				"baseColorFactor":[
					0.0477757528424263,
					0.04298701137304306,
					0.037028513848781586,
					1
				],
				"metallicFactor":0,
				"roughnessFactor":0.4000000059604645
			}
		},
		{
			"doubleSided":true,
			"name":"Heather_Shirt",
			"pbrMetallicRoughness":{
				"baseColorFactor":[
					1,
					0.7082977890968323,
					0.21576440334320068,
					1
				],
				"metallicFactor":0,
				"roughnessFactor":0.4000000059604645
			}
		},
		{
			"doubleSided":true,
			"name":"AM113_048_Acer_platanoides_Bark",
			"pbrMetallicRoughness":{
				"baseColorTexture":{
					"index":1
				},
				"metallicFactor":0,
				"roughnessFactor":0.5
			}
		},
		{
			"doubleSided":true,
			"name":"AM113_048_Acer_platanoides",
			"pbrMetallicRoughness":{
				"baseColorTexture":{
					"index":2
				},
				"metallicFactor":0,
				"roughnessFactor":0.5
			}
		}
	],
	"meshes":[
		{
			"name":"Sketchup",
			"primitives":[
				{
					"attributes":{
						"POSITION":0,
						"NORMAL":1
					},
					"indices":2,
					"material":0
				},
				{
					"attributes":{
						"POSITION":3,
						"NORMAL":4
					},
					"indices":5,
					"material":1
				},
				{
					"attributes":{
						"POSITION":6,
						"NORMAL":7
					},
					"indices":8,
					"material":2
				},
				{
					"attributes":{
						"POSITION":9,
						"NORMAL":10
					},
					"indices":11,
					"material":3
				},
				{
					"attributes":{
						"POSITION":12,
						"NORMAL":13
					},
					"indices":14,
					"material":4
				},
				{
					"attributes":{
						"POSITION":15,
						"NORMAL":16
					},
					"indices":17,
					"material":5
				},
				{
					"attributes":{
						"POSITION":18,
						"NORMAL":19
					},
					"indices":20,
					"material":6
				},
				{
					"attributes":{
						"POSITION":21,
						"NORMAL":22
					},
					"indices":23,
					"material":7
				},
				{
					"attributes":{
						"POSITION":24,
						"NORMAL":25
					},
					"indices":26,
					"material":8
				},
				{
					"attributes":{
						"POSITION":27,
						"NORMAL":28
					},
					"indices":29,
					"material":9
				},
				{
					"attributes":{
						"POSITION":30,
						"NORMAL":31
					},
					"indices":32,
					"material":10
				}
			]
		},
		{
			"name":"AM113_048_Acer_platanoides_Defintion",
			"primitives":[
				{
					"attributes":{
						"POSITION":33,
						"TEXCOORD_0":34,
						"NORMAL":35
					},
					"indices":36,
					"material":11
				}
			]
		},
		{
			"name":"AM113_048_Acer_platanoides_Defintion1",
			"primitives":[
				{
					"attributes":{
						"POSITION":37,
						"TEXCOORD_0":38,
						"NORMAL":39
					},
					"indices":40,
					"material":12
				}
			]
		}
	],
	"textures":[
		{
			"sampler":0,
			"source":0
		},
		{
			"sampler":0,
			"source":1
		},
		{
			"sampler":0,
			"source":2
		}
	],
	"images":[
		{
			"mimeType":"image/jpeg",
			"name":"Roofing Scalloped Ornate",
			"uri":"Roofing%20Scalloped%20Ornate.jpg"
		},
		{
			"mimeType":"image/jpeg",
			"name":"AM113_048_Acer_platanoides_Bark_Color",
			"uri":"AM113_048_Acer_platanoides_Bark_Color.jpg"
		},
		{
			"mimeType":"image/png",
			"name":"AM113_048_Acer_platanoides_Color",
			"uri":"AM113_048_Acer_platanoides_Color.png"
		}
	],
	"accessors":[
		{
			"bufferView":0,
			"componentType":5126,
			"count":15256,
			"max":[
				2600.069091796875,
				22.010000228881836,
				-1218.9952392578125
			],
			"min":[
				1433.3619384765625,
				-1.4800000190734863,
				-2791.074951171875
			],
			"type":"VEC3"
		},
		{
			"bufferView":1,
			"componentType":5126,
			"count":15256,
			"type":"VEC3"
		},
		{
			"bufferView":2,
			"componentType":5123,
			"count":25806,
			"type":"SCALAR"
		},
		{
			"bufferView":3,
			"componentType":5126,
			"count":1231,
			"max":[
				2262.5712890625,
				40,
				-1613.2635498046875
			],
			"min":[
				1478.4346923828125,
				0,
				-2354.53125
			],
			"type":"VEC3"
		},
		{
			"bufferView":4,
			"componentType":5126,
			"count":1231,
			"type":"VEC3"
		},
		{
			"bufferView":5,
			"componentType":5123,
			"count":1983,
			"type":"SCALAR"
		},
		{
			"bufferView":6,
			"componentType":5126,
			"count":358,
			"max":[
				2149.541748046875,
				34.279998779296875,
				-1740.45361328125
			],
			"min":[
				1877.8509521484375,
				0,
				-2115.228271484375
			],
			"type":"VEC3"
		},
		{
			"bufferView":7,
			"componentType":5126,
			"count":358,
			"type":"VEC3"
		},
		{
			"bufferView":8,
			"componentType":5123,
			"count":582,
			"type":"SCALAR"
		},
		{
			"bufferView":9,
			"componentType":5126,
			"count":126,
			"max":[
				1929.5257568359375,
				9,
				-1784.335693359375
			],
			"min":[
				1830.274169921875,
				0,
				-1892.0338134765625
			],
			"type":"VEC3"
		},
		{
			"bufferView":10,
			"componentType":5126,
			"count":126,
			"type":"VEC3"
		},
		{
			"bufferView":11,
			"componentType":5123,
			"count":192,
			"type":"SCALAR"
		},
		{
			"bufferView":12,
			"componentType":5126,
			"count":8,
			"max":[
				1925.0960693359375,
				9,
				-1784.335693359375
			],
			"min":[
				1899.213623046875,
				0,
				-1800.43212890625
			],
			"type":"VEC3"
		},
		{
			"bufferView":13,
			"componentType":5126,
			"count":8,
			"type":"VEC3"
		},
		{
			"bufferView":14,
			"componentType":5123,
			"count":12,
			"type":"SCALAR"
		},
		{
			"bufferView":15,
			"componentType":5126,
			"count":2134,
			"max":[
				2513.80712890625,
				30,
				-1386.593994140625
			],
			"min":[
				1688.681640625,
				-0.46000000834465027,
				-2491.614013671875
			],
			"type":"VEC3"
		},
		{
			"bufferView":16,
			"componentType":5126,
			"count":2134,
			"type":"VEC3"
		},
		{
			"bufferView":17,
			"componentType":5123,
			"count":3354,
			"type":"SCALAR"
		},
		{
			"bufferView":18,
			"componentType":5126,
			"count":16,
			"max":[
				1981.6724853515625,
				11,
				-2136.83251953125
			],
			"min":[
				1940.6322021484375,
				11,
				-2160.400390625
			],
			"type":"VEC3"
		},
		{
			"bufferView":19,
			"componentType":5126,
			"count":16,
			"type":"VEC3"
		},
		{
			"bufferView":20,
			"componentType":5123,
			"count":24,
			"type":"SCALAR"
		},
		{
			"bufferView":21,
			"componentType":5126,
			"count":92,
			"max":[
				2351.33251953125,
				0,
				-1355.0079345703125
			],
			"min":[
				1801.1239013671875,
				0,
				-2177.5419921875
			],
			"type":"VEC3"
		},
		{
			"bufferView":22,
			"componentType":5126,
			"count":92,
			"type":"VEC3"
		},
		{
			"bufferView":23,
			"componentType":5123,
			"count":222,
			"type":"SCALAR"
		},
		{
			"bufferView":24,
			"componentType":5126,
			"count":13,
			"max":[
				2349.06787109375,
				1.5464284488488702e-16,
				-1264.4439697265625
			],
			"min":[
				1654.284912109375,
				0,
				-2381.779541015625
			],
			"type":"VEC3"
		},
		{
			"bufferView":25,
			"componentType":5126,
			"count":13,
			"type":"VEC3"
		},
		{
			"bufferView":26,
			"componentType":5123,
			"count":21,
			"type":"SCALAR"
		},
		{
			"bufferView":27,
			"componentType":5126,
			"count":5409,
			"max":[
				2489.180908203125,
				0.5653839707374573,
				-1222.9820556640625
			],
			"min":[
				1518.522705078125,
				-2.3101165145850318e-14,
				-2502.167724609375
			],
			"type":"VEC3"
		},
		{
			"bufferView":28,
			"componentType":5126,
			"count":5409,
			"type":"VEC3"
		},
		{
			"bufferView":29,
			"componentType":5123,
			"count":11031,
			"type":"SCALAR"
		},
		{
			"bufferView":30,
			"componentType":5126,
			"count":3075,
			"max":[
				4000,
				4.800087939431895e-14,
				0
			],
			"min":[
				0,
				-2.3101165145850318e-14,
				-4000
			],
			"type":"VEC3"
		},
		{
			"bufferView":31,
			"componentType":5126,
			"count":3075,
			"type":"VEC3"
		},
		{
			"bufferView":32,
			"componentType":5123,
			"count":11409,
			"type":"SCALAR"
		},
		{
			"bufferView":33,
			"componentType":5126,
			"count":1413,
			"max":[
				5.728492259979248,
				25.163776397705078,
				4.90008544921875
			],
			"min":[
				-6.2365007400512695,
				-0.2362237572669983,
				-6.644005298614502
			],
			"type":"VEC3"
		},
		{
			"bufferView":34,
			"componentType":5126,
			"count":1413,
			"type":"VEC2"
		},
		{
			"bufferView":35,
			"componentType":5126,
			"count":1413,
			"type":"VEC3"
		},
		{
			"bufferView":36,
			"componentType":5123,
			"count":4206,
			"type":"SCALAR"
		},
		{
			"bufferView":37,
			"componentType":5126,
			"count":7249,
			"max":[
				11.703108787536621,
				35.75231170654297,
				12.558622360229492
			],
			"min":[
				-13.696890830993652,
				10.546295166015625,
				-12.431921005249023
			],
			"type":"VEC3"
		},
		{
			"bufferView":38,
			"componentType":5126,
			"count":7249,
			"type":"VEC2"
		},
		{
			"bufferView":39,
			"componentType":5126,
			"count":7249,
			"type":"VEC3"
		},
		{
			"bufferView":40,
			"componentType":5123,
			"count":20829,
			"type":"SCALAR"
		}
	],
	"bufferViews":[
		{
			"buffer":0,
			"byteLength":183072,
			"byteOffset":0,
			"target":34962
		},
		{
			"buffer":0,
			"byteLength":183072,
			"byteOffset":183072,
			"target":34962
		},
		{
			"buffer":0,
			"byteLength":51612,
			"byteOffset":366144,
			"target":34963
		},
		{
			"buffer":0,
			"byteLength":14772,
			"byteOffset":417756,
			"target":34962
		},
		{
			"buffer":0,
			"byteLength":14772,
			"byteOffset":432528,
			"target":34962
		},
		{
			"buffer":0,
			"byteLength":3966,
			"byteOffset":447300,
			"target":34963
		},
		{
			"buffer":0,
			"byteLength":4296,
			"byteOffset":451268,
			"target":34962
		},
		{
			"buffer":0,
			"byteLength":4296,
			"byteOffset":455564,
			"target":34962
		},
		{
			"buffer":0,
			"byteLength":1164,
			"byteOffset":459860,
			"target":34963
		},
		{
			"buffer":0,
			"byteLength":1512,
			"byteOffset":461024,
			"target":34962
		},
		{
			"buffer":0,
			"byteLength":1512,
			"byteOffset":462536,
			"target":34962
		},
		{
			"buffer":0,
			"byteLength":384,
			"byteOffset":464048,
			"target":34963
		},
		{
			"buffer":0,
			"byteLength":96,
			"byteOffset":464432,
			"target":34962
		},
		{
			"buffer":0,
			"byteLength":96,
			"byteOffset":464528,
			"target":34962
		},
		{
			"buffer":0,
			"byteLength":24,
			"byteOffset":464624,
			"target":34963
		},
		{
			"buffer":0,
			"byteLength":25608,
			"byteOffset":464648,
			"target":34962
		},
		{
			"buffer":0,
			"byteLength":25608,
			"byteOffset":490256,
			"target":34962
		},
		{
			"buffer":0,
			"byteLength":6708,
			"byteOffset":515864,
			"target":34963
		},
		{
			"buffer":0,
			"byteLength":192,
			"byteOffset":522572,
			"target":34962
		},
		{
			"buffer":0,
			"byteLength":192,
			"byteOffset":522764,
			"target":34962
		},
		{
			"buffer":0,
			"byteLength":48,
			"byteOffset":522956,
			"target":34963
		},
		{
			"buffer":0,
			"byteLength":1104,
			"byteOffset":523004,
			"target":34962
		},
		{
			"buffer":0,
			"byteLength":1104,
			"byteOffset":524108,
			"target":34962
		},
		{
			"buffer":0,
			"byteLength":444,
			"byteOffset":525212,
			"target":34963
		},
		{
			"buffer":0,
			"byteLength":156,
			"byteOffset":525656,
			"target":34962
		},
		{
			"buffer":0,
			"byteLength":156,
			"byteOffset":525812,
			"target":34962
		},
		{
			"buffer":0,
			"byteLength":42,
			"byteOffset":525968,
			"target":34963
		},
		{
			"buffer":0,
			"byteLength":64908,
			"byteOffset":526012,
			"target":34962
		},
		{
			"buffer":0,
			"byteLength":64908,
			"byteOffset":590920,
			"target":34962
		},
		{
			"buffer":0,
			"byteLength":22062,
			"byteOffset":655828,
			"target":34963
		},
		{
			"buffer":0,
			"byteLength":36900,
			"byteOffset":677892,
			"target":34962
		},
		{
			"buffer":0,
			"byteLength":36900,
			"byteOffset":714792,
			"target":34962
		},
		{
			"buffer":0,
			"byteLength":22818,
			"byteOffset":751692,
			"target":34963
		},
		{
			"buffer":0,
			"byteLength":16956,
			"byteOffset":774512,
			"target":34962
		},
		{
			"buffer":0,
			"byteLength":11304,
			"byteOffset":791468,
			"target":34962
		},
		{
			"buffer":0,
			"byteLength":16956,
			"byteOffset":802772,
			"target":34962
		},
		{
			"buffer":0,
			"byteLength":8412,
			"byteOffset":819728,
			"target":34963
		},
		{
			"buffer":0,
			"byteLength":86988,
			"byteOffset":828140,
			"target":34962
		},
		{
			"buffer":0,
			"byteLength":57992,
			"byteOffset":915128,
			"target":34962
		},
		{
			"buffer":0,
			"byteLength":86988,
			"byteOffset":973120,
			"target":34962
		},
		{
			"buffer":0,
			"byteLength":41658,
			"byteOffset":1060108,
			"target":34963
		}
	],
	"samplers":[
		{
			"magFilter":9729,
			"minFilter":9987
		}
	],
	"buffers":[
		{
			"byteLength":1101768,
			"uri":"model.bin"
		}
	]
}
