{
	"asset":{
		"generator":"Khronos glTF Blender I/O v3.5.30",
		"version":"2.0"
	},
	"scene":0,
	"scenes":[
		{
			"name":"Scene",
			"nodes":[
				0,
				1,
				2
			]
		}
	],
	"nodes":[
		{
			"mesh":0,
			"name":"G-__555645",
			"translation":[
				1734.025390625,
				11.312524795532227,
				-1361.3341064453125
			]
		},
		{
			"mesh":1,
			"name":"G-__555654",
			"translation":[
				1968.0438232421875,
				11.493499755859375,
				-1910.1319580078125
			]
		},
		{
			"mesh":2,
			"name":"G-__555663",
			"translation":[
				2275.265380859375,
				13.749337196350098,
				-2295.942626953125
			]
		}
	],
	"materials":[
		{
			"doubleSided":true,
			"name":"Heather_Shirt",
			"pbrMetallicRoughness":{
				"baseColorFactor":[
					0.025371277704834938,
					0.07592611759901047,
					0.06381487101316452,
					1
				],
				"metallicFactor":0,
				"roughnessFactor":0.4000000059604645
			}
		}
	],
	"meshes":[
		{
			"name":"G-__555645",
			"primitives":[
				{
					"attributes":{
						"POSITION":0,
						"NORMAL":1
					},
					"indices":2,
					"material":0
				}
			]
		},
		{
			"name":"G-__555654",
			"primitives":[
				{
					"attributes":{
						"POSITION":3,
						"NORMAL":4
					},
					"indices":2,
					"material":0
				}
			]
		},
		{
			"name":"G-__555663",
			"primitives":[
				{
					"attributes":{
						"POSITION":5,
						"NORMAL":6
					},
					"indices":2,
					"material":0
				}
			]
		}
	],
	"accessors":[
		{
			"bufferView":0,
			"componentType":5126,
			"count":96,
			"max":[
				14.183886528015137,
				18.058391571044922,
				0
			],
			"min":[
				0,
				0,
				-14.187807083129883
			],
			"type":"VEC3"
		},
		{
			"bufferView":1,
			"componentType":5126,
			"count":96,
			"type":"VEC3"
		},
		{
			"bufferView":2,
			"componentType":5123,
			"count":276,
			"type":"SCALAR"
		},
		{
			"bufferView":3,
			"componentType":5126,
			"count":96,
			"max":[
				14.183886528015137,
				18.058391571044922,
				0
			],
			"min":[
				0,
				0,
				-14.187807083129883
			],
			"type":"VEC3"
		},
		{
			"bufferView":4,
			"componentType":5126,
			"count":96,
			"type":"VEC3"
		},
		{
			"bufferView":5,
			"componentType":5126,
			"count":96,
			"max":[
				14.183886528015137,
				18.058391571044922,
				0
			],
			"min":[
				0,
				0,
				-14.187807083129883
			],
			"type":"VEC3"
		},
		{
			"bufferView":6,
			"componentType":5126,
			"count":96,
			"type":"VEC3"
		}
	],
	"bufferViews":[
		{
			"buffer":0,
			"byteLength":1152,
			"byteOffset":0,
			"target":34962
		},
		{
			"buffer":0,
			"byteLength":1152,
			"byteOffset":1152,
			"target":34962
		},
		{
			"buffer":0,
			"byteLength":552,
			"byteOffset":2304,
			"target":34963
		},
		{
			"buffer":0,
			"byteLength":1152,
			"byteOffset":2856,
			"target":34962
		},
		{
			"buffer":0,
			"byteLength":1152,
			"byteOffset":4008,
			"target":34962
		},
		{
			"buffer":0,
			"byteLength":1152,
			"byteOffset":5160,
			"target":34962
		},
		{
			"buffer":0,
			"byteLength":1152,
			"byteOffset":6312,
			"target":34962
		}
	],
	"buffers":[
		{
			"byteLength":7464,
			"uri":"openspaces-labels.bin"
		}
	]
}
