{
	"asset":{
		"generator":"Khronos glTF Blender I/O v3.5.30",
		"version":"2.0"
	},
	"scene":0,
	"scenes":[
		{
			"name":"Scene",
			"nodes":[
				0,
				1,
				2,
				3,
				4,
				5,
				6,
				7,
				8,
				9,
				10,
				11,
				12,
				13,
				14,
				15,
				16,
				17,
				18,
				19,
				20,
				21,
				22,
				23,
				24,
				25,
				26,
				27,
				28,
				29,
				30,
				31,
				32,
				33,
				34,
				35,
				36,
				37,
				38
			]
		}
	],
	"nodes":[
		{
			"mesh":0,
			"name":"Makerere Hill Rd",
			"rotation":[
				0,
				0.2588190734386444,
				0,
				0.965925931930542
			],
			"scale":[
				24.20479965209961,
				24.20479965209961,
				24.20479965209961
			],
			"translation":[
				2221.7314453125,
				0,
				-1289.484375
			]
		},
		{
			"mesh":0,
			"name":"Makerere Hill Rd.001",
			"rotation":[
				0,
				0.2588190734386444,
				0,
				0.965925931930542
			],
			"scale":[
				24.20479965209961,
				24.20479965209961,
				24.20479965209961
			],
			"translation":[
				2335.9404296875,
				0,
				-1355.25537109375
			]
		},
		{
			"mesh":0,
			"name":"Makerere Hill Rd.002",
			"rotation":[
				0,
				0.07957714796066284,
				0,
				0.9968287348747253
			],
			"scale":[
				24.20479965209961,
				24.20479965209961,
				24.20479965209961
			],
			"translation":[
				2014.9593505859375,
				0,
				-1249.369384765625
			]
		},
		{
			"mesh":0,
			"name":"Makerere Hill Rd.003",
			"rotation":[
				0,
				0.043619390577077866,
				0,
				0.9990482926368713
			],
			"scale":[
				24.204803466796875,
				24.20479965209961,
				24.204803466796875
			],
			"translation":[
				1827.4232177734375,
				0,
				-1229.6942138671875
			]
		},
		{
			"mesh":0,
			"name":"Makerere Hill Rd.004",
			"rotation":[
				0,
				-0.058316607028245926,
				0,
				0.998298168182373
			],
			"scale":[
				24.20479965209961,
				24.20479965209961,
				24.20479965209961
			],
			"translation":[
				1690.0048828125,
				0,
				-1241.5673828125
			]
		},
		{
			"mesh":1,
			"name":"University Rd",
			"rotation":[
				0,
				-0.4999999701976776,
				0,
				0.8660253882408142
			],
			"scale":[
				14.280000686645508,
				14.279999732971191,
				14.280000686645508
			],
			"translation":[
				2212.639892578125,
				0,
				-1583.7476806640625
			]
		},
		{
			"mesh":1,
			"name":"University Rd.001",
			"rotation":[
				0,
				-0.43249592185020447,
				0,
				0.9016358852386475
			],
			"scale":[
				14.280000686645508,
				14.279999732971191,
				14.280000686645508
			],
			"translation":[
				2171.432861328125,
				0,
				-1638.1031494140625
			]
		},
		{
			"mesh":1,
			"name":"University Rd.002",
			"rotation":[
				0,
				-0.4383459687232971,
				0,
				0.8988063335418701
			],
			"scale":[
				14.279999732971191,
				14.279999732971191,
				14.279999732971191
			],
			"translation":[
				2124.873046875,
				0,
				-1696.180908203125
			]
		},
		{
			"mesh":1,
			"name":"University Rd.003",
			"rotation":[
				0,
				-0.2714405059814453,
				0,
				0.9624553322792053
			],
			"scale":[
				14.279999732971191,
				14.279999732971191,
				14.279999732971191
			],
			"translation":[
				2075.333251953125,
				0,
				-1732.1712646484375
			]
		},
		{
			"mesh":1,
			"name":"University Rd.004",
			"rotation":[
				0,
				-0.4172464907169342,
				0,
				0.9087933897972107
			],
			"scale":[
				14.279999732971191,
				14.279999732971191,
				14.279999732971191
			],
			"translation":[
				2005.4298095703125,
				0,
				-1798.9241943359375
			]
		},
		{
			"mesh":1,
			"name":"University Rd.005",
			"rotation":[
				0,
				-0.4226182997226715,
				0,
				0.9063078761100769
			],
			"scale":[
				14.280000686645508,
				14.279999732971191,
				14.280000686645508
			],
			"translation":[
				1934.0369873046875,
				0,
				-1882.5374755859375
			]
		},
		{
			"mesh":1,
			"name":"University Rd.006",
			"rotation":[
				0,
				-0.4226182997226715,
				0,
				0.9063078761100769
			],
			"scale":[
				14.280000686645508,
				14.279999732971191,
				14.280000686645508
			],
			"translation":[
				1870.0323486328125,
				0,
				-1957.64990234375
			]
		},
		{
			"mesh":2,
			"name":"Pool Rd",
			"rotation":[
				0,
				0.6016972064971924,
				0,
				0.7987242937088013
			],
			"scale":[
				16.269725799560547,
				16.269723892211914,
				16.269725799560547
			],
			"translation":[
				2272.152099609375,
				0,
				-1549.7745361328125
			]
		},
		{
			"mesh":2,
			"name":"Pool Rd.001",
			"rotation":[
				0,
				0.6605464220046997,
				0,
				0.7507853507995605
			],
			"scale":[
				16.269725799560547,
				16.269723892211914,
				16.269725799560547
			],
			"translation":[
				2300.259765625,
				0,
				-1643.5592041015625
			]
		},
		{
			"mesh":2,
			"name":"Pool Rd.002",
			"rotation":[
				0,
				0.8766223788261414,
				0,
				0.48117899894714355
			],
			"scale":[
				16.269725799560547,
				16.269723892211914,
				16.269725799560547
			],
			"translation":[
				2250.146484375,
				0,
				-1761.8477783203125
			]
		},
		{
			"mesh":2,
			"name":"Pool Rd.003",
			"rotation":[
				0,
				0.9228737354278564,
				0,
				0.3851027488708496
			],
			"scale":[
				16.269725799560547,
				16.269723892211914,
				16.269725799560547
			],
			"translation":[
				2153.34716796875,
				0,
				-1872.4561767578125
			]
		},
		{
			"mesh":2,
			"name":"Pool Rd.004",
			"rotation":[
				0,
				0.8404868841171265,
				0,
				0.5418320894241333
			],
			"scale":[
				16.269723892211914,
				16.269723892211914,
				16.269723892211914
			],
			"translation":[
				2105.793701171875,
				0,
				-1959.884033203125
			]
		},
		{
			"mesh":2,
			"name":"Pool Rd.005",
			"rotation":[
				0,
				0.8413826823234558,
				0,
				0.5404398441314697
			],
			"scale":[
				16.269725799560547,
				16.269723892211914,
				16.269725799560547
			],
			"translation":[
				2041.993408203125,
				0,
				-2105.898681640625
			]
		},
		{
			"mesh":3,
			"name":"Livingstone Rd",
			"rotation":[
				0,
				0.8393900990486145,
				0,
				0.5435294508934021
			],
			"scale":[
				14.193717956542969,
				14.193717956542969,
				14.193717956542969
			],
			"translation":[
				1994.5841064453125,
				0,
				-2204.286376953125
			]
		},
		{
			"mesh":3,
			"name":"Livingstone Rd.001",
			"rotation":[
				0,
				0.8393900990486145,
				0,
				0.5435294508934021
			],
			"scale":[
				14.193717956542969,
				14.193717956542969,
				14.193717956542969
			],
			"translation":[
				1948.201904296875,
				0,
				-2308.31982421875
			]
		},
		{
			"mesh":4,
			"name":"Observatory Hill",
			"rotation":[
				0,
				-0.9970528483390808,
				0,
				0.0767190158367157
			],
			"scale":[
				14.819314002990723,
				14.819314002990723,
				14.819314002990723
			],
			"translation":[
				1859.8802490234375,
				0,
				-2376.20361328125
			]
		},
		{
			"mesh":4,
			"name":"Observatory Hill.001",
			"rotation":[
				0,
				-0.7331366539001465,
				0,
				0.6800813674926758
			],
			"scale":[
				14.819314002990723,
				14.819314002990723,
				14.819314002990723
			],
			"translation":[
				1740.2550048828125,
				0,
				-2315.9609375
			]
		},
		{
			"mesh":5,
			"name":"Garden Hill Rd",
			"rotation":[
				0,
				-0.9914448857307434,
				0,
				0.1305261254310608
			],
			"scale":[
				22.57000160217285,
				22.56999969482422,
				22.57000160217285
			],
			"translation":[
				1905.6607666015625,
				0,
				-2284.246826171875
			]
		},
		{
			"mesh":6,
			"name":"Quarry Stone Rd",
			"rotation":[
				0,
				0.8439014554023743,
				0,
				0.5364983081817627
			],
			"scale":[
				26.50950050354004,
				26.50950050354004,
				26.50950050354004
			],
			"translation":[
				1842.8240966796875,
				0,
				-2107.046875
			]
		},
		{
			"mesh":7,
			"name":"Northcote Rd",
			"rotation":[
				0,
				0.35102465748786926,
				0,
				0.9363663196563721
			],
			"scale":[
				24.84000015258789,
				24.84000015258789,
				24.84000015258789
			],
			"translation":[
				1916.5743408203125,
				0,
				-2086.721435546875
			]
		},
		{
			"mesh":8,
			"name":"Tennis Ct Rd",
			"rotation":[
				0,
				0.036630574613809586,
				0,
				0.9993289113044739
			],
			"scale":[
				18.56999969482422,
				18.56999969482422,
				18.56999969482422
			],
			"translation":[
				2124.494873046875,
				0,
				-1503.8759765625
			]
		},
		{
			"mesh":8,
			"name":"Tennis Ct Rd.001",
			"rotation":[
				0,
				0.134055957198143,
				0,
				0.9909737706184387
			],
			"scale":[
				18.56999969482422,
				18.56999969482422,
				18.56999969482422
			],
			"translation":[
				1978.23291015625,
				0,
				-1466.0018310546875
			]
		},
		{
			"mesh":9,
			"name":"Mary Stuart Rd",
			"rotation":[
				0,
				0.8530590534210205,
				0,
				0.5218144059181213
			],
			"scale":[
				14.454000473022461,
				14.454000473022461,
				14.454000473022461
			],
			"translation":[
				1885.284912109375,
				0,
				-1527.2061767578125
			]
		},
		{
			"mesh":9,
			"name":"Mary Stuart Rd.001",
			"rotation":[
				0,
				0.8023644685745239,
				0,
				0.5968343615531921
			],
			"scale":[
				14.454000473022461,
				14.454000473022461,
				14.454000473022461
			],
			"translation":[
				1827.28369140625,
				0,
				-1675.3284912109375
			]
		},
		{
			"mesh":10,
			"name":"Kasubi Westlink ",
			"rotation":[
				0,
				0.09427527338266373,
				0,
				0.9955461621284485
			],
			"scale":[
				16.588001251220703,
				16.58799934387207,
				16.588001251220703
			],
			"translation":[
				1694.5531005859375,
				0,
				-1743.2557373046875
			]
		},
		{
			"mesh":11,
			"name":"West Rd",
			"rotation":[
				0,
				-0.5533916354179382,
				0,
				0.8329213261604309
			],
			"scale":[
				22.25,
				22.25,
				22.25
			],
			"translation":[
				1540.9456787109375,
				0,
				-2007.50439453125
			]
		},
		{
			"mesh":11,
			"name":"West Rd.001",
			"rotation":[
				0,
				-0.5533916354179382,
				0,
				0.8329213261604309
			],
			"scale":[
				22.25,
				22.25,
				22.25
			],
			"translation":[
				1580.5509033203125,
				0,
				-1910.6510009765625
			]
		},
		{
			"mesh":11,
			"name":"West Rd.002",
			"rotation":[
				0,
				-0.6374239921569824,
				0,
				0.7705132365226746
			],
			"scale":[
				22.249998092651367,
				22.25,
				22.249998092651367
			],
			"translation":[
				1621.472412109375,
				0,
				-1765.808349609375
			]
		},
		{
			"mesh":12,
			"name":"Mansfield Rd",
			"rotation":[
				0,
				-0.996006190776825,
				0,
				0.08928418159484863
			],
			"scale":[
				23.11499786376953,
				23.114999771118164,
				23.11499786376953
			],
			"translation":[
				1618.51220703125,
				0,
				-2098.347412109375
			]
		},
		{
			"mesh":7,
			"name":"Northcote Rd.001",
			"rotation":[
				0,
				0.18137742578983307,
				0,
				0.983413577079773
			],
			"scale":[
				24.84000015258789,
				24.84000015258789,
				24.84000015258789
			],
			"translation":[
				2080.794189453125,
				0,
				-2230.284912109375
			]
		},
		{
			"mesh":7,
			"name":"Northcote Rd.002",
			"rotation":[
				0,
				-0.1993679255247116,
				0,
				0.9799246788024902
			],
			"scale":[
				24.84000015258789,
				24.84000015258789,
				24.84000015258789
			],
			"translation":[
				2179.236572265625,
				0,
				-2255.908203125
			]
		},
		{
			"mesh":7,
			"name":"Northcote Rd.003",
			"rotation":[
				0,
				-0.5620834231376648,
				0,
				0.8270806670188904
			],
			"scale":[
				24.84000015258789,
				24.84000015258789,
				24.84000015258789
			],
			"translation":[
				2285.780517578125,
				0,
				-2128.710693359375
			]
		},
		{
			"mesh":13,
			"name":"Cassia Hill Rd",
			"rotation":[
				0,
				-0.6393250226974487,
				0,
				0.7689367532730103
			],
			"scale":[
				20.705244064331055,
				20.705244064331055,
				20.705244064331055
			],
			"translation":[
				2379.8955078125,
				0,
				-1944.532958984375
			]
		},
		{
			"mesh":13,
			"name":"Cassia Hill Rd.001",
			"rotation":[
				0,
				-0.9854901432991028,
				0,
				0.16973330080509186
			],
			"scale":[
				20.705244064331055,
				20.705244064331055,
				20.705244064331055
			],
			"translation":[
				2341.636474609375,
				0,
				-1842.0101318359375
			]
		}
	],
	"materials":[
		{
			"doubleSided":true,
			"name":"Material",
			"pbrMetallicRoughness":{
				"baseColorFactor":[
					0.800000011920929,
					0.800000011920929,
					0.800000011920929,
					1
				],
				"metallicFactor":0,
				"roughnessFactor":0.5
			}
		}
	],
	"meshes":[
		{
			"name":"Makerere Hill Rd",
			"primitives":[
				{
					"attributes":{
						"POSITION":0,
						"NORMAL":1
					},
					"indices":2,
					"material":0
				}
			]
		},
		{
			"name":"University Rd",
			"primitives":[
				{
					"attributes":{
						"POSITION":3,
						"NORMAL":4
					},
					"indices":5,
					"material":0
				}
			]
		},
		{
			"name":"Pool Rd",
			"primitives":[
				{
					"attributes":{
						"POSITION":6,
						"NORMAL":7
					},
					"indices":8,
					"material":0
				}
			]
		},
		{
			"name":"Livingstone Rd",
			"primitives":[
				{
					"attributes":{
						"POSITION":9,
						"NORMAL":10
					},
					"indices":11,
					"material":0
				}
			]
		},
		{
			"name":"Observatory Hill",
			"primitives":[
				{
					"attributes":{
						"POSITION":12,
						"NORMAL":13
					},
					"indices":14,
					"material":0
				}
			]
		},
		{
			"name":"Garden Hill Rd",
			"primitives":[
				{
					"attributes":{
						"POSITION":15,
						"NORMAL":16
					},
					"indices":17,
					"material":0
				}
			]
		},
		{
			"name":"Quarry Stone Rd",
			"primitives":[
				{
					"attributes":{
						"POSITION":18,
						"NORMAL":19
					},
					"indices":20,
					"material":0
				}
			]
		},
		{
			"name":"Northcote Rd",
			"primitives":[
				{
					"attributes":{
						"POSITION":21,
						"NORMAL":22
					},
					"indices":23,
					"material":0
				}
			]
		},
		{
			"name":"Tennis Ct Rd",
			"primitives":[
				{
					"attributes":{
						"POSITION":24,
						"NORMAL":25
					},
					"indices":26,
					"material":0
				}
			]
		},
		{
			"name":"Mary Stuart Rd",
			"primitives":[
				{
					"attributes":{
						"POSITION":27,
						"NORMAL":28
					},
					"indices":29,
					"material":0
				}
			]
		},
		{
			"name":"Kasubi Westlink ",
			"primitives":[
				{
					"attributes":{
						"POSITION":30,
						"NORMAL":31
					},
					"indices":32,
					"material":0
				}
			]
		},
		{
			"name":"West Rd",
			"primitives":[
				{
					"attributes":{
						"POSITION":33,
						"NORMAL":34
					},
					"indices":35,
					"material":0
				}
			]
		},
		{
			"name":"Mansfield Rd",
			"primitives":[
				{
					"attributes":{
						"POSITION":36,
						"NORMAL":37
					},
					"indices":38,
					"material":0
				}
			]
		},
		{
			"name":"Cassia Hill Rd",
			"primitives":[
				{
					"attributes":{
						"POSITION":39,
						"NORMAL":40
					},
					"indices":41,
					"material":0
				}
			]
		}
	],
	"accessors":[
		{
			"bufferView":0,
			"componentType":5126,
			"count":1735,
			"max":[
				1.9350512027740479,
				0.02539999969303608,
				0
			],
			"min":[
				0.016038155183196068,
				-1.4426687942783107e-30,
				-0.20396029949188232
			],
			"type":"VEC3"
		},
		{
			"bufferView":1,
			"componentType":5126,
			"count":1735,
			"type":"VEC3"
		},
		{
			"bufferView":2,
			"componentType":5123,
			"count":4380,
			"type":"SCALAR"
		},
		{
			"bufferView":3,
			"componentType":5126,
			"count":1510,
			"max":[
				1.5351251363754272,
				0.02539999969303608,
				0
			],
			"min":[
				0.016038155183196068,
				0,
				-0.2673134505748749
			],
			"type":"VEC3"
		},
		{
			"bufferView":4,
			"componentType":5126,
			"count":1510,
			"type":"VEC3"
		},
		{
			"bufferView":5,
			"componentType":5123,
			"count":3852,
			"type":"SCALAR"
		},
		{
			"bufferView":6,
			"componentType":5126,
			"count":946,
			"max":[
				0.8590100407600403,
				0.02539999969303608,
				0
			],
			"min":[
				0.016038155183196068,
				0,
				-0.20396029949188232
			],
			"type":"VEC3"
		},
		{
			"bufferView":7,
			"componentType":5126,
			"count":946,
			"type":"VEC3"
		},
		{
			"bufferView":8,
			"componentType":5123,
			"count":2628,
			"type":"SCALAR"
		},
		{
			"bufferView":9,
			"componentType":5126,
			"count":1920,
			"max":[
				1.7059812545776367,
				0.02539999969303608,
				0
			],
			"min":[
				0.016038155183196068,
				0,
				-0.2673134505748749
			],
			"type":"VEC3"
		},
		{
			"bufferView":10,
			"componentType":5126,
			"count":1920,
			"type":"VEC3"
		},
		{
			"bufferView":11,
			"componentType":5123,
			"count":5100,
			"type":"SCALAR"
		},
		{
			"bufferView":12,
			"componentType":5126,
			"count":2254,
			"max":[
				2.2721951007843018,
				0.02539999969303608,
				0
			],
			"min":[
				0.010692783631384373,
				0,
				-0.2673134505748749
			],
			"type":"VEC3"
		},
		{
			"bufferView":13,
			"componentType":5126,
			"count":2254,
			"type":"VEC3"
		},
		{
			"bufferView":14,
			"componentType":5123,
			"count":5904,
			"type":"SCALAR"
		},
		{
			"bufferView":15,
			"componentType":5126,
			"count":1709,
			"max":[
				1.6762217283248901,
				0.02539999969303608,
				0
			],
			"min":[
				0.010692783631384373,
				0,
				-0.20396029949188232
			],
			"type":"VEC3"
		},
		{
			"bufferView":16,
			"componentType":5126,
			"count":1709,
			"type":"VEC3"
		},
		{
			"bufferView":17,
			"componentType":5123,
			"count":4488,
			"type":"SCALAR"
		},
		{
			"bufferView":18,
			"componentType":5126,
			"count":2133,
			"max":[
				1.9700316190719604,
				0.02539999969303608,
				0
			],
			"min":[
				0.010692783631384373,
				0,
				-0.2673134505748749
			],
			"type":"VEC3"
		},
		{
			"bufferView":19,
			"componentType":5126,
			"count":2133,
			"type":"VEC3"
		},
		{
			"bufferView":20,
			"componentType":5123,
			"count":5712,
			"type":"SCALAR"
		},
		{
			"bufferView":21,
			"componentType":5126,
			"count":1577,
			"max":[
				1.5489606857299805,
				0.02539999969303608,
				0
			],
			"min":[
				0.016038155183196068,
				0,
				-0.20396029949188232
			],
			"type":"VEC3"
		},
		{
			"bufferView":22,
			"componentType":5126,
			"count":1577,
			"type":"VEC3"
		},
		{
			"bufferView":23,
			"componentType":5123,
			"count":4152,
			"type":"SCALAR"
		},
		{
			"bufferView":24,
			"componentType":5126,
			"count":1509,
			"max":[
				1.4868311882019043,
				0.02539999969303608,
				0
			],
			"min":[
				0.010692783631384373,
				0,
				-0.20396029949188232
			],
			"type":"VEC3"
		},
		{
			"bufferView":25,
			"componentType":5126,
			"count":1509,
			"type":"VEC3"
		},
		{
			"bufferView":26,
			"componentType":5123,
			"count":3960,
			"type":"SCALAR"
		},
		{
			"bufferView":27,
			"componentType":5126,
			"count":1689,
			"max":[
				1.80765962600708,
				0.02539999969303608,
				0
			],
			"min":[
				0.016038155183196068,
				0,
				-0.2673134505748749
			],
			"type":"VEC3"
		},
		{
			"bufferView":28,
			"componentType":5126,
			"count":1689,
			"type":"VEC3"
		},
		{
			"bufferView":29,
			"componentType":5123,
			"count":4320,
			"type":"SCALAR"
		},
		{
			"bufferView":30,
			"componentType":5126,
			"count":2256,
			"max":[
				2.1796534061431885,
				0.02539999969303608,
				0
			],
			"min":[
				0.016038155183196068,
				0,
				-0.20396029949188232
			],
			"type":"VEC3"
		},
		{
			"bufferView":31,
			"componentType":5126,
			"count":2256,
			"type":"VEC3"
		},
		{
			"bufferView":32,
			"componentType":5123,
			"count":5796,
			"type":"SCALAR"
		},
		{
			"bufferView":33,
			"componentType":5126,
			"count":965,
			"max":[
				0.9528568983078003,
				0.02539999969303608,
				0
			],
			"min":[
				0.007484744302928448,
				0,
				-0.20396029949188232
			],
			"type":"VEC3"
		},
		{
			"bufferView":34,
			"componentType":5126,
			"count":965,
			"type":"VEC3"
		},
		{
			"bufferView":35,
			"componentType":5123,
			"count":2532,
			"type":"SCALAR"
		},
		{
			"bufferView":36,
			"componentType":5126,
			"count":1716,
			"max":[
				1.5316009521484375,
				0.02539999969303608,
				0
			],
			"min":[
				0.016038155183196068,
				0,
				-0.2071683406829834
			],
			"type":"VEC3"
		},
		{
			"bufferView":37,
			"componentType":5126,
			"count":1716,
			"type":"VEC3"
		},
		{
			"bufferView":38,
			"componentType":5123,
			"count":4536,
			"type":"SCALAR"
		},
		{
			"bufferView":39,
			"componentType":5126,
			"count":1797,
			"max":[
				1.5481775999069214,
				0.02539999969303608,
				0
			],
			"min":[
				0.010692783631384373,
				0,
				-0.20396029949188232
			],
			"type":"VEC3"
		},
		{
			"bufferView":40,
			"componentType":5126,
			"count":1797,
			"type":"VEC3"
		},
		{
			"bufferView":41,
			"componentType":5123,
			"count":4800,
			"type":"SCALAR"
		}
	],
	"bufferViews":[
		{
			"buffer":0,
			"byteLength":20820,
			"byteOffset":0,
			"target":34962
		},
		{
			"buffer":0,
			"byteLength":20820,
			"byteOffset":20820,
			"target":34962
		},
		{
			"buffer":0,
			"byteLength":8760,
			"byteOffset":41640,
			"target":34963
		},
		{
			"buffer":0,
			"byteLength":18120,
			"byteOffset":50400,
			"target":34962
		},
		{
			"buffer":0,
			"byteLength":18120,
			"byteOffset":68520,
			"target":34962
		},
		{
			"buffer":0,
			"byteLength":7704,
			"byteOffset":86640,
			"target":34963
		},
		{
			"buffer":0,
			"byteLength":11352,
			"byteOffset":94344,
			"target":34962
		},
		{
			"buffer":0,
			"byteLength":11352,
			"byteOffset":105696,
			"target":34962
		},
		{
			"buffer":0,
			"byteLength":5256,
			"byteOffset":117048,
			"target":34963
		},
		{
			"buffer":0,
			"byteLength":23040,
			"byteOffset":122304,
			"target":34962
		},
		{
			"buffer":0,
			"byteLength":23040,
			"byteOffset":145344,
			"target":34962
		},
		{
			"buffer":0,
			"byteLength":10200,
			"byteOffset":168384,
			"target":34963
		},
		{
			"buffer":0,
			"byteLength":27048,
			"byteOffset":178584,
			"target":34962
		},
		{
			"buffer":0,
			"byteLength":27048,
			"byteOffset":205632,
			"target":34962
		},
		{
			"buffer":0,
			"byteLength":11808,
			"byteOffset":232680,
			"target":34963
		},
		{
			"buffer":0,
			"byteLength":20508,
			"byteOffset":244488,
			"target":34962
		},
		{
			"buffer":0,
			"byteLength":20508,
			"byteOffset":264996,
			"target":34962
		},
		{
			"buffer":0,
			"byteLength":8976,
			"byteOffset":285504,
			"target":34963
		},
		{
			"buffer":0,
			"byteLength":25596,
			"byteOffset":294480,
			"target":34962
		},
		{
			"buffer":0,
			"byteLength":25596,
			"byteOffset":320076,
			"target":34962
		},
		{
			"buffer":0,
			"byteLength":11424,
			"byteOffset":345672,
			"target":34963
		},
		{
			"buffer":0,
			"byteLength":18924,
			"byteOffset":357096,
			"target":34962
		},
		{
			"buffer":0,
			"byteLength":18924,
			"byteOffset":376020,
			"target":34962
		},
		{
			"buffer":0,
			"byteLength":8304,
			"byteOffset":394944,
			"target":34963
		},
		{
			"buffer":0,
			"byteLength":18108,
			"byteOffset":403248,
			"target":34962
		},
		{
			"buffer":0,
			"byteLength":18108,
			"byteOffset":421356,
			"target":34962
		},
		{
			"buffer":0,
			"byteLength":7920,
			"byteOffset":439464,
			"target":34963
		},
		{
			"buffer":0,
			"byteLength":20268,
			"byteOffset":447384,
			"target":34962
		},
		{
			"buffer":0,
			"byteLength":20268,
			"byteOffset":467652,
			"target":34962
		},
		{
			"buffer":0,
			"byteLength":8640,
			"byteOffset":487920,
			"target":34963
		},
		{
			"buffer":0,
			"byteLength":27072,
			"byteOffset":496560,
			"target":34962
		},
		{
			"buffer":0,
			"byteLength":27072,
			"byteOffset":523632,
			"target":34962
		},
		{
			"buffer":0,
			"byteLength":11592,
			"byteOffset":550704,
			"target":34963
		},
		{
			"buffer":0,
			"byteLength":11580,
			"byteOffset":562296,
			"target":34962
		},
		{
			"buffer":0,
			"byteLength":11580,
			"byteOffset":573876,
			"target":34962
		},
		{
			"buffer":0,
			"byteLength":5064,
			"byteOffset":585456,
			"target":34963
		},
		{
			"buffer":0,
			"byteLength":20592,
			"byteOffset":590520,
			"target":34962
		},
		{
			"buffer":0,
			"byteLength":20592,
			"byteOffset":611112,
			"target":34962
		},
		{
			"buffer":0,
			"byteLength":9072,
			"byteOffset":631704,
			"target":34963
		},
		{
			"buffer":0,
			"byteLength":21564,
			"byteOffset":640776,
			"target":34962
		},
		{
			"buffer":0,
			"byteLength":21564,
			"byteOffset":662340,
			"target":34962
		},
		{
			"buffer":0,
			"byteLength":9600,
			"byteOffset":683904,
			"target":34963
		}
	],
	"buffers":[
		{
			"byteLength":693504,
			"uri":"roads-labels.bin"
		}
	]
}
