<svg id="Layer_1" data-name="Layer 1" xmlns="http://www.w3.org/2000/svg" viewBox="0 0 209 209"><defs><style>.cls-1{fill:#fbb040;}.cls-2{fill:#027441;}.cls-3{fill:#a8170d;}</style></defs><path class="cls-1" d="M481.46,488.75a7.3,7.3,0,0,1-5.15-2.13l-62-62a7.28,7.28,0,0,1,0-10.31l75.14-75.15a7.29,7.29,0,0,1,12.26,3.54,126.15,126.15,0,0,1,2.81,28.16v58.32c0,26.89-5.68,45.14-17.86,57.43a7.27,7.27,0,0,1-5.16,2.16Zm-51.71-69.31,51.15,51.15c6.13-9.4,9-22.81,9-41.43V370.84c0-3.95-.14-7.65-.41-11.15Z" transform="translate(-295.5 -295.5)"/><path class="cls-2" d="M344.3,501.88a7.55,7.55,0,0,1-1.63-.19c-16.66-3.82-28.52-11.68-36.27-24-7.34-11.68-10.9-27.55-10.9-48.51V370.84c0-26.93,5.7-45.17,17.93-57.41s30.48-17.93,57.41-17.93h58.32c21,0,36.83,3.56,48.51,10.9,12.34,7.75,20.2,19.61,24,36.27a7.29,7.29,0,0,1-1.95,6.78L349.45,499.74A7.29,7.29,0,0,1,344.3,501.88Zm26.54-191.8c-22.81,0-37.78,4.34-47.1,13.66s-13.66,24.29-13.66,47.1v58.32c0,33.74,9.34,50.68,32,57.32L486.48,342.09c-6.64-22.67-23.58-32-57.32-32Z" transform="translate(-295.5 -295.5)"/><path class="cls-3" d="M429.16,504.5H370.84a126.15,126.15,0,0,1-28.16-2.81,7.29,7.29,0,0,1-3.54-12.26l75.15-75.14a7.28,7.28,0,0,1,10.31,0l62,62a7.29,7.29,0,0,1,0,10.33C474.3,498.82,456.05,504.5,429.16,504.5Zm-69.47-15c3.5.27,7.2.41,11.15.41h58.32c18.62,0,32-2.89,41.43-9l-51.15-51.15Z" transform="translate(-295.5 -295.5)"/><path class="cls-1" d="M372,412.69a24.88,24.88,0,0,1-17.09-6.8A67.67,67.67,0,0,1,340.52,387c-4.53-9.19-5.75-18.51-3.61-27.69h0a33.84,33.84,0,0,1,13.5-20.33,38.29,38.29,0,0,1,43.19,0,33.84,33.84,0,0,1,13.5,20.33v0c2.08,9.17.85,18.47-3.65,27.64a67.2,67.2,0,0,1-14.36,18.9h0A24.61,24.61,0,0,1,372,412.69Zm0-65.84c-7.95,0-18.2,4.12-20.89,15.72h0c-3.09,13.27,5.83,25.12,13.85,32.72a10.21,10.21,0,0,0,14.06,0l0,0c8-7.57,16.88-19.39,13.85-32.76C390.18,351,380,346.85,372,346.85Z" transform="translate(-295.5 -295.5)"/><path class="cls-1" d="M371.84,377.64h-.08a9.72,9.72,0,1,1,0-19.44h.08a9.72,9.72,0,1,1,0,19.44Z" transform="translate(-295.5 -295.5)"/></svg>